<mxfile host="app.diagrams.net" modified="2024-07-17T23:07:35.840Z" agent="Mozilla/5.0 (Windows NT 10.0; Win64; x64) AppleWebKit/537.36 (KHTML, like Gecko) Chrome/126.0.0.0 Safari/537.36" etag="dsszKSgsm9sgGVkZIvMz" version="24.4.10" type="device">
  <diagram name="Page-1" id="k98BbnOxZb4VJXOJZn1a">
    <mxGraphModel dx="1841" dy="655" grid="1" gridSize="10" guides="1" tooltips="1" connect="1" arrows="1" fold="1" page="1" pageScale="1" pageWidth="850" pageHeight="1100" math="0" shadow="0">
      <root>
        <mxCell id="0" />
        <mxCell id="1" parent="0" />
        <mxCell id="0Y-YUVPIeXL91rIuUNWn-9" value="" style="edgeStyle=orthogonalEdgeStyle;rounded=0;orthogonalLoop=1;jettySize=auto;html=1;entryX=0.5;entryY=0;entryDx=0;entryDy=0;" edge="1" parent="1" source="0Y-YUVPIeXL91rIuUNWn-1" target="0Y-YUVPIeXL91rIuUNWn-3">
          <mxGeometry relative="1" as="geometry" />
        </mxCell>
        <mxCell id="0Y-YUVPIeXL91rIuUNWn-1" value="Bubbles intro page" style="rounded=1;whiteSpace=wrap;html=1;fillColor=#f8cecc;strokeColor=#b85450;" vertex="1" parent="1">
          <mxGeometry x="330" y="490" width="155" height="70" as="geometry" />
        </mxCell>
        <mxCell id="0Y-YUVPIeXL91rIuUNWn-2" value="projects" style="rounded=1;whiteSpace=wrap;html=1;fillColor=#ffe6cc;strokeColor=#d79b00;" vertex="1" parent="1">
          <mxGeometry x="260" y="600" width="155" height="70" as="geometry" />
        </mxCell>
        <mxCell id="0Y-YUVPIeXL91rIuUNWn-3" value="contact me&lt;div&gt;(socials basically(github linkedin discord instagram etc etc))&lt;br&gt;even email fourm&lt;/div&gt;" style="rounded=1;whiteSpace=wrap;html=1;fillColor=#ffe6cc;strokeColor=#d79b00;" vertex="1" parent="1">
          <mxGeometry x="485" y="600" width="155" height="70" as="geometry" />
        </mxCell>
        <mxCell id="0Y-YUVPIeXL91rIuUNWn-13" value="" style="edgeStyle=orthogonalEdgeStyle;rounded=0;orthogonalLoop=1;jettySize=auto;html=1;" edge="1" parent="1" source="0Y-YUVPIeXL91rIuUNWn-4" target="0Y-YUVPIeXL91rIuUNWn-6">
          <mxGeometry relative="1" as="geometry" />
        </mxCell>
        <mxCell id="0Y-YUVPIeXL91rIuUNWn-4" value="Blogs list" style="rounded=1;whiteSpace=wrap;html=1;fillColor=#ffe6cc;strokeColor=#d79b00;" vertex="1" parent="1">
          <mxGeometry x="660" y="600" width="155" height="70" as="geometry" />
        </mxCell>
        <mxCell id="0Y-YUVPIeXL91rIuUNWn-5" value="Blog1" style="rounded=1;whiteSpace=wrap;html=1;fillColor=#fff2cc;strokeColor=#d6b656;" vertex="1" parent="1">
          <mxGeometry x="650" y="710" width="70" height="70" as="geometry" />
        </mxCell>
        <mxCell id="0Y-YUVPIeXL91rIuUNWn-6" value="Blog n" style="rounded=1;whiteSpace=wrap;html=1;fillColor=#fff2cc;strokeColor=#d6b656;" vertex="1" parent="1">
          <mxGeometry x="770" y="710" width="65" height="70" as="geometry" />
        </mxCell>
        <mxCell id="0Y-YUVPIeXL91rIuUNWn-7" value="About me (picture skills education) DEBATABLE IDK IF WILL DO" style="rounded=1;whiteSpace=wrap;html=1;fillColor=#ffe6cc;strokeColor=#d79b00;" vertex="1" parent="1">
          <mxGeometry x="60" y="600" width="155" height="70" as="geometry" />
        </mxCell>
        <mxCell id="0Y-YUVPIeXL91rIuUNWn-10" value="" style="endArrow=classic;html=1;rounded=0;entryX=0.5;entryY=0;entryDx=0;entryDy=0;" edge="1" parent="1" target="0Y-YUVPIeXL91rIuUNWn-7">
          <mxGeometry width="50" height="50" relative="1" as="geometry">
            <mxPoint x="325" y="530" as="sourcePoint" />
            <mxPoint x="120" y="520" as="targetPoint" />
            <Array as="points">
              <mxPoint x="138" y="530" />
            </Array>
          </mxGeometry>
        </mxCell>
        <mxCell id="0Y-YUVPIeXL91rIuUNWn-11" value="" style="edgeStyle=orthogonalEdgeStyle;rounded=0;orthogonalLoop=1;jettySize=auto;html=1;entryX=0.5;entryY=0;entryDx=0;entryDy=0;exitX=0.5;exitY=1;exitDx=0;exitDy=0;" edge="1" parent="1" source="0Y-YUVPIeXL91rIuUNWn-1" target="0Y-YUVPIeXL91rIuUNWn-2">
          <mxGeometry relative="1" as="geometry">
            <mxPoint x="418" y="570" as="sourcePoint" />
            <mxPoint x="573" y="610" as="targetPoint" />
          </mxGeometry>
        </mxCell>
        <mxCell id="0Y-YUVPIeXL91rIuUNWn-12" value="" style="endArrow=classic;html=1;rounded=0;exitX=1;exitY=0.5;exitDx=0;exitDy=0;entryX=0.5;entryY=0;entryDx=0;entryDy=0;" edge="1" parent="1" source="0Y-YUVPIeXL91rIuUNWn-1" target="0Y-YUVPIeXL91rIuUNWn-4">
          <mxGeometry width="50" height="50" relative="1" as="geometry">
            <mxPoint x="500" y="530" as="sourcePoint" />
            <mxPoint x="550" y="480" as="targetPoint" />
            <Array as="points">
              <mxPoint x="738" y="520" />
            </Array>
          </mxGeometry>
        </mxCell>
        <mxCell id="0Y-YUVPIeXL91rIuUNWn-14" value="" style="edgeStyle=orthogonalEdgeStyle;rounded=0;orthogonalLoop=1;jettySize=auto;html=1;entryX=0.5;entryY=0;entryDx=0;entryDy=0;" edge="1" parent="1" target="0Y-YUVPIeXL91rIuUNWn-5">
          <mxGeometry relative="1" as="geometry">
            <mxPoint x="740" y="690" as="sourcePoint" />
            <mxPoint x="813" y="720" as="targetPoint" />
          </mxGeometry>
        </mxCell>
      </root>
    </mxGraphModel>
  </diagram>
</mxfile>
